<svg width="17" height="17" viewBox="0 0 17 17" fill="none" xmlns="http://www.w3.org/2000/svg">
<path fill-rule="evenodd" clip-rule="evenodd" d="M8.49662 10.8335C9.78529 10.8335 10.83 9.78883 10.83 8.50016C10.83 7.2115 9.78529 6.16683 8.49662 6.16683C7.20796 6.16683 6.16329 7.2115 6.16329 8.50016C6.16329 9.78883 7.20796 10.8335 8.49662 10.8335ZM8.49662 9.49642C7.9464 9.49642 7.50037 9.05038 7.50037 8.50016C7.50037 7.94995 7.9464 7.50391 8.49662 7.50391C9.04684 7.50391 9.49288 7.94995 9.49288 8.50016C9.49288 9.05038 9.04684 9.49642 8.49662 9.49642Z" fill="black"/>
<path fill-rule="evenodd" clip-rule="evenodd" d="M8.50036 3.8335C5.29289 3.8335 3.1115 5.57286 1.9599 6.82002C1.07196 7.78163 1.07196 9.2187 1.9599 10.1803C3.1115 11.4275 5.29289 13.1668 8.50036 13.1668C11.7078 13.1668 13.8892 11.4275 15.0408 10.1803C15.9288 9.21869 15.9288 7.78163 15.0408 6.82002C13.8892 5.57286 11.7078 3.8335 8.50036 3.8335ZM2.93949 7.72455C3.95925 6.62018 5.81163 5.16683 8.50036 5.16683C11.1891 5.16683 13.0415 6.62018 14.0612 7.72455C14.4775 8.17537 14.4775 8.82495 14.0612 9.27577C13.0415 10.3801 11.1891 11.8335 8.50036 11.8335C5.81163 11.8335 3.95925 10.3801 2.93949 9.27577C2.52321 8.82495 2.52321 8.17537 2.93949 7.72455Z" fill="black"/>
</svg>
