<?xml version="1.0" standalone="no"?>
<!DOCTYPE svg PUBLIC "-//W3C//DTD SVG 20010904//EN"
 "http://www.w3.org/TR/2001/REC-SVG-20010904/DTD/svg10.dtd">
<svg version="1.0" xmlns="http://www.w3.org/2000/svg"
 width="376.000000pt" height="107.000000pt" viewBox="0 0 376.000000 107.000000"
 preserveAspectRatio="xMidYMid meet">

<g transform="translate(0.000000,107.000000) scale(0.100000,-0.100000)"
fill="#000000" stroke="none">
<path d="M390 920 c0 -28 -46 -39 -64 -15 -11 15 -15 16 -34 4 -12 -8 -20 -20
-17 -28 3 -8 3 -23 -1 -33 -5 -16 -12 -19 -34 -15 -22 5 -29 1 -38 -18 -9 -19
-8 -24 4 -29 22 -9 13 -49 -13 -61 -31 -13 -31 -52 0 -57 27 -4 37 -47 13 -60
-13 -7 -14 -13 -6 -29 12 -22 19 -23 54 -10 l24 10 -19 38 c-59 116 25 253
156 253 56 0 92 -18 133 -64 34 -38 48 -89 38 -136 -4 -22 -2 -30 8 -30 8 0
16 7 20 15 3 8 15 15 26 15 31 0 27 46 -5 54 -27 7 -35 42 -14 63 6 6 8 20 4
32 -5 16 -12 20 -31 15 -32 -8 -55 12 -48 41 8 31 -30 55 -44 29 -13 -24 -62
-11 -62 16 0 15 -7 20 -25 20 -18 0 -25 -5 -25 -20z"/>
<path d="M367 836 c-69 -25 -97 -66 -97 -143 l1 -48 13 31 c17 39 52 64 88 64
38 0 43 -15 17 -50 -17 -22 -20 -33 -12 -41 8 -8 16 -2 29 20 21 36 39 39 54
10 17 -30 3 -75 -33 -105 l-32 -27 39 6 c22 4 44 14 49 23 5 9 18 23 29 33 43
35 48 44 48 83 0 106 -97 178 -193 144z"/>
<path d="M10 575 c0 -201 0 -205 21 -205 11 0 32 9 46 20 14 11 36 20 49 20
17 0 35 16 64 55 43 59 47 67 27 59 -9 -3 -23 12 -38 41 -24 46 -24 46 -4 58
19 11 19 11 -5 17 -22 5 -25 11 -25 55 0 44 3 50 23 53 12 2 22 7 22 12 0 14
-30 20 -106 20 l-74 0 0 -205z m105 165 c7 -12 -39 -24 -60 -16 -8 3 -15 10
-15 16 0 13 67 13 75 0z m0 -55 c0 -5 -17 -11 -37 -13 -30 -3 -38 0 -38 13 0
13 8 16 38 13 20 -2 37 -7 37 -13z m15 -55 c0 -5 -20 -10 -45 -10 -25 0 -45 5
-45 10 0 6 20 10 45 10 25 0 45 -4 45 -10z m10 -55 c0 -11 -12 -15 -50 -15
-38 0 -50 4 -50 15 0 11 12 15 50 15 38 0 50 -4 50 -15z m28 -52 c3 -10 -14
-13 -62 -13 -61 0 -77 6 -59 24 12 12 116 2 121 -11z m-13 -53 c3 -5 -5 -12
-18 -15 -36 -9 -90 -2 -95 13 -5 15 103 17 113 2z"/>
<path d="M653 773 c-20 -8 -15 -23 7 -23 17 0 20 -7 20 -51 0 -41 -4 -52 -18
-56 -16 -4 -14 -9 15 -38 29 -29 33 -40 33 -83 0 -28 -4 -54 -10 -57 -16 -10
-12 -19 24 -58 25 -27 42 -37 65 -37 l31 0 0 205 0 205 -77 -1 c-43 0 -84 -3
-90 -6z m135 -35 c-3 -7 -20 -13 -38 -13 -18 0 -35 6 -37 13 -3 8 8 12 37 12
29 0 40 -4 38 -12z m0 -55 c2 -9 -8 -13 -32 -13 -34 0 -52 11 -39 24 11 11 66
2 71 -11z m2 -53 c0 -5 -20 -10 -45 -10 -25 0 -45 5 -45 10 0 6 20 10 45 10
25 0 45 -4 45 -10z m-2 -52 c-7 -20 -58 -23 -58 -4 0 11 10 16 31 16 20 0 29
-4 27 -12z m-14 -44 c25 -9 19 -24 -9 -24 -24 0 -32 10 -18 23 8 8 8 8 27 1z
m14 -66 c-3 -7 -13 -13 -23 -13 -10 0 -20 6 -22 13 -3 7 5 12 22 12 17 0 25
-5 23 -12z"/>
<path d="M2169 715 c-13 -13 -23 -14 -63 -5 -51 11 -67 9 -127 -17 -55 -23
-94 -98 -93 -178 2 -129 40 -188 139 -220 59 -18 105 -14 152 15 35 21 39 39
35 137 l-4 72 -55 11 c-69 15 -117 4 -121 -27 -3 -21 1 -24 60 -37 21 -5 29
-14 33 -40 12 -59 4 -71 -42 -70 -80 1 -113 48 -113 162 0 81 34 132 89 132
11 0 51 -10 87 -22 l67 -22 19 24 c13 16 18 35 16 59 -3 32 -6 36 -33 39 -17
2 -37 -4 -46 -13z"/>
<path d="M1185 711 l-100 -6 -3 -194 c-2 -134 1 -198 9 -207 8 -10 41 -14 124
-14 118 0 141 8 133 47 -3 15 -15 18 -83 19 -44 0 -86 1 -92 2 -9 1 -13 22
-13 62 l0 60 48 0 c58 0 89 8 95 24 11 28 -11 39 -75 40 l-63 1 -3 52 -3 52
92 3 c74 2 94 6 103 20 23 37 -21 47 -169 39z"/>
<path d="M1504 710 c-17 -4 -35 -9 -40 -13 -14 -8 -7 -376 7 -393 6 -8 22 -14
34 -14 43 0 47 19 39 165 -4 78 -3 135 2 135 9 0 73 -99 145 -224 40 -69 56
-81 93 -72 l27 7 -5 77 c-4 42 -8 131 -11 197 -3 106 -6 122 -24 133 -15 11
-24 11 -42 2 -21 -12 -22 -16 -15 -112 3 -57 2 -97 -3 -94 -5 3 -27 37 -50 75
-73 124 -97 144 -157 131z"/>
<path d="M2433 713 c-101 -4 -103 -4 -109 -30 -11 -43 6 -377 19 -385 7 -4 62
-8 123 -8 117 0 140 8 132 47 -3 15 -15 18 -83 19 -44 1 -86 2 -92 3 -9 1 -13
20 -13 61 l0 60 51 0 c60 0 89 13 89 40 0 21 -7 23 -90 24 l-45 1 -3 53 -3 52
84 0 c90 0 123 13 111 43 -3 9 -11 17 -18 17 -6 0 -20 2 -31 3 -11 2 -66 2
-122 0z"/>
<path d="M2721 711 c-79 -14 -58 -71 26 -71 l43 0 0 -170 c0 -185 1 -189 55
-176 l25 6 0 176 0 175 43 -6 c54 -8 97 7 97 35 0 11 -6 22 -12 25 -23 7 -242
12 -277 6z"/>
<path d="M3183 713 c-101 -4 -103 -4 -109 -30 -8 -32 1 -367 10 -382 5 -7 50
-11 125 -11 125 0 147 8 139 47 -3 15 -15 18 -83 19 -44 0 -86 1 -92 2 -9 1
-13 22 -13 62 l0 60 51 0 c60 0 89 13 89 40 0 20 -22 26 -80 22 -57 -5 -65 3
-62 58 l4 50 83 0 c62 0 88 4 99 15 16 17 11 45 -8 45 -6 0 -20 2 -31 3 -11 2
-66 2 -122 0z"/>
<path d="M3535 700 c-82 -42 -122 -145 -104 -263 14 -85 63 -134 151 -148 87
-14 149 7 134 46 -4 11 -21 15 -61 15 -102 0 -145 43 -145 146 0 60 30 142 53
146 7 0 41 2 77 2 58 1 65 3 68 22 3 24 -24 39 -89 49 -34 4 -53 1 -84 -15z"/>
<path d="M325 690 c-13 -14 -16 -30 -13 -58 5 -36 0 -46 -72 -145 -61 -81 -83
-104 -97 -101 -25 7 -73 -32 -73 -59 1 -21 2 -20 24 7 24 29 32 29 68 -2 17
-14 17 -17 -3 -49 l-21 -33 26 11 c29 14 41 46 32 84 -5 21 7 44 70 130 66 92
79 105 105 105 35 0 69 31 69 63 -1 21 -1 21 -23 -5 -27 -33 -34 -34 -67 -8
l-25 19 23 30 c26 36 7 45 -23 11z"/>
<path d="M555 606 c-59 -26 -72 -101 -26 -147 56 -56 145 -27 157 52 5 30 2
41 -22 67 -35 38 -69 46 -109 28z m92 -28 c33 -31 32 -90 -3 -117 -37 -29 -70
-26 -106 9 -25 26 -29 36 -24 63 12 64 86 89 133 45z"/>
<path d="M568 566 c-28 -14 -35 -57 -13 -80 25 -24 62 -20 81 9 32 49 -15 97
-68 71z"/>
<path d="M322 509 c-17 -27 -15 -34 6 -17 22 21 62 7 62 -22 0 -30 38 -26 50
5 5 14 14 25 20 25 5 0 10 6 10 13 0 8 -21 12 -68 13 -57 1 -71 -2 -80 -17z"/>
<path d="M336 455 c-4 -11 -13 -14 -30 -9 -19 4 -29 -1 -50 -29 -14 -18 -26
-37 -26 -40 0 -4 90 -7 200 -7 171 0 200 2 200 15 0 10 -10 15 -32 15 -36 0
-95 31 -104 55 -9 22 -24 18 -24 -5 0 -18 -7 -20 -55 -20 -48 0 -55 2 -55 20
0 24 -15 27 -24 5z m194 -55 c0 -6 -47 -10 -120 -10 -73 0 -120 4 -120 10 0 6
47 10 120 10 73 0 120 -4 120 -10z"/>
<path d="M652 409 c2 -6 8 -10 13 -10 5 0 11 4 13 10 2 6 -4 11 -13 11 -9 0
-15 -5 -13 -11z"/>
<path d="M683 373 c-7 -2 -13 -9 -13 -14 0 -7 61 -109 76 -127 5 -7 44 10 44
19 0 16 -75 129 -85 128 -5 0 -16 -3 -22 -6z"/>
<path d="M12 323 c4 -39 28 -42 28 -4 0 21 -5 31 -16 31 -11 0 -14 -8 -12 -27z"/>
<path d="M230 320 l0 -30 220 0 c121 0 220 2 220 5 0 3 -7 17 -16 30 l-16 25
-204 0 -204 0 0 -30z m300 0 c0 -6 -47 -10 -120 -10 -73 0 -120 4 -120 10 0 6
47 10 120 10 73 0 120 -4 120 -10z"/>
<path d="M785 320 c18 -34 35 -31 35 6 0 19 -5 24 -25 24 -25 0 -25 0 -10 -30z"/>
<path d="M106 304 c-4 -11 -1 -14 11 -12 9 2 18 9 21 16 6 18 -25 15 -32 -4z"/>
<path d="M330 248 c0 -13 -3 -33 -6 -45 -6 -23 -5 -23 83 -23 49 0 92 2 95 5
3 3 2 22 -1 43 l-6 37 -83 3 c-80 3 -82 2 -82 -20z"/>
<path d="M247 154 c-20 -20 8 -24 169 -24 136 0 175 3 172 13 -4 9 -48 13
-169 15 -91 1 -168 -1 -172 -4z"/>
</g>
</svg>
