<svg width="109" height="39" viewBox="0 0 109 39" fill="none" xmlns="http://www.w3.org/2000/svg">
<path d="M19.4 30.61C18.2 30.61 17.16 30.36 16.28 29.86C15.4 29.36 14.72 28.7 14.24 27.88C13.78 27.04 13.55 26.13 13.55 25.15C13.55 24.23 13.75 23.33 14.15 22.45C14.55 21.57 15.1 20.77 15.8 20.05C16.52 19.31 17.35 18.71 18.29 18.25C19.23 17.77 20.24 17.48 21.32 17.38C20.54 16.74 19.96 16 19.58 15.16C19.22 14.32 19.04 13.48 19.04 12.64C19.04 11.58 19.3 10.58 19.82 9.64C20.36 8.68 21.1 7.91 22.04 7.33C22.98 6.73 24.04 6.43 25.22 6.43C26.34 6.43 27.19 6.71 27.77 7.27C28.35 7.83 28.64 8.63 28.64 9.67C28.64 10.41 28.51 11.13 28.25 11.83C27.99 12.53 27.67 13.1 27.29 13.54C26.93 13.98 26.58 14.2 26.24 14.2C26.02 14.2 25.81 14.11 25.61 13.93C25.41 13.73 25.25 13.5 25.13 13.24C25.83 12.62 26.42 11.97 26.9 11.29C27.4 10.59 27.65 9.85 27.65 9.07C27.65 8.45 27.47 7.97 27.11 7.63C26.75 7.29 26.22 7.12 25.52 7.12C24.6 7.12 23.82 7.4 23.18 7.96C22.54 8.5 22.05 9.23 21.71 10.15C21.39 11.05 21.23 12.05 21.23 13.15C21.23 13.87 21.34 14.65 21.56 15.49C21.78 16.33 22.25 17.06 22.97 17.68C21.63 17.9 20.46 18.41 19.46 19.21C18.48 20.01 17.71 20.95 17.15 22.03C16.61 23.11 16.34 24.18 16.34 25.24C16.34 25.9 16.46 26.57 16.7 27.25C16.96 27.91 17.37 28.46 17.93 28.9C18.49 29.36 19.24 29.59 20.18 29.59C21.24 29.59 22.29 29.29 23.33 28.69C24.39 28.09 25.36 27.3 26.24 26.32C27.12 25.34 27.82 24.28 28.34 23.14L28.76 23.44C28.06 24.8 27.24 26.02 26.3 27.1C25.36 28.18 24.31 29.03 23.15 29.65C21.99 30.29 20.74 30.61 19.4 30.61ZM29.6609 29.17C29.0409 29.17 28.6109 28.86 28.3709 28.24C28.1309 27.64 28.0109 26.85 28.0109 25.87C28.0109 25.83 28.0209 25.52 28.0409 24.94C28.0609 24.34 28.1109 23.34 28.1909 21.94C28.2309 21.4 28.2909 21.03 28.3709 20.83C28.4509 20.63 28.7109 20.53 29.1509 20.53C29.4909 20.53 29.7009 20.6 29.7809 20.74C29.8809 20.86 29.9309 21.11 29.9309 21.49C29.9309 22.15 29.8809 22.93 29.7809 23.83C29.7009 24.71 29.6609 25.54 29.6609 26.32C29.6609 26.9 29.7109 27.33 29.8109 27.61C29.9109 27.87 30.0909 28 30.3509 28C30.7109 28 31.1109 27.8 31.5509 27.4C31.9909 26.98 32.4409 26.44 32.9009 25.78C33.3609 25.1 33.7909 24.38 34.1909 23.62C34.6109 22.86 34.9809 22.13 35.3009 21.43C35.3409 20.07 35.4809 19.17 35.7209 18.73C35.9809 18.27 36.3009 18.04 36.6809 18.04C37.0609 18.04 37.3309 18.18 37.4909 18.46C37.6709 18.72 37.7609 18.96 37.7609 19.18C37.7609 19.44 37.6709 19.71 37.4909 19.99C37.3309 20.27 37.1609 20.65 36.9809 21.13C36.8009 21.61 36.7109 22.3 36.7109 23.2C36.7109 23.52 36.7409 23.86 36.8009 24.22C36.8609 24.58 36.9909 24.88 37.1909 25.12C37.3909 25.36 37.7009 25.48 38.1209 25.48C38.5409 25.48 38.9409 25.32 39.3209 25C39.7209 24.66 40.1109 24.08 40.4909 23.26L40.8809 23.56C40.4409 24.56 39.9509 25.23 39.4109 25.57C38.8909 25.91 38.3909 26.08 37.9109 26.08C37.2509 26.08 36.7009 25.84 36.2609 25.36C35.8209 24.88 35.5309 24.15 35.3909 23.17C34.9109 24.15 34.3409 25.1 33.6809 26.02C33.0409 26.92 32.3709 27.67 31.6709 28.27C30.9709 28.87 30.3009 29.17 29.6609 29.17ZM43.1677 29.32C41.9477 29.32 41.0277 28.98 40.4077 28.3C39.8077 27.64 39.5077 26.82 39.5077 25.84C39.5077 24.94 39.7277 23.99 40.1677 22.99C40.6277 21.99 41.2277 21.05 41.9677 20.17C42.7277 19.29 43.5577 18.58 44.4577 18.04C45.3577 17.48 46.2477 17.2 47.1277 17.2C47.5877 17.2 48.0077 17.32 48.3877 17.56C48.7877 17.8 48.9877 18.29 48.9877 19.03C48.9877 19.79 48.7577 20.51 48.2977 21.19C47.8577 21.85 47.2677 22.44 46.5277 22.96C45.8077 23.48 45.0077 23.91 44.1277 24.25C43.2677 24.57 42.4077 24.77 41.5477 24.85C41.5077 25.05 41.4777 25.24 41.4577 25.42C41.4377 25.6 41.4277 25.77 41.4277 25.93C41.4277 26.23 41.4577 26.53 41.5177 26.83C41.5977 27.13 41.7277 27.41 41.9077 27.67C42.0877 27.91 42.3277 28.1 42.6277 28.24C42.9477 28.38 43.3377 28.45 43.7977 28.45C44.6577 28.45 45.5077 28.21 46.3477 27.73C47.1877 27.23 47.9677 26.58 48.6877 25.78C49.4077 24.98 50.0177 24.1 50.5177 23.14L50.8777 23.41C50.3377 24.61 49.6477 25.65 48.8077 26.53C47.9877 27.41 47.0877 28.09 46.1077 28.57C45.1477 29.07 44.1677 29.32 43.1677 29.32ZM41.6977 24.28C42.2377 24.1 42.8477 23.84 43.5277 23.5C44.2077 23.14 44.8577 22.72 45.4777 22.24C46.1177 21.76 46.6377 21.23 47.0377 20.65C47.4577 20.07 47.6677 19.46 47.6677 18.82C47.6677 18.6 47.6277 18.43 47.5477 18.31C47.4677 18.19 47.2977 18.13 47.0377 18.13C46.5577 18.13 46.0477 18.32 45.5077 18.7C44.9677 19.06 44.4477 19.54 43.9477 20.14C43.4477 20.74 42.9977 21.4 42.5977 22.12C42.1977 22.84 41.8977 23.56 41.6977 24.28ZM59.608 28.6C58.908 28.6 58.378 28.42 58.018 28.06C57.678 27.7 57.508 27.24 57.508 26.68C57.508 26.26 57.578 25.82 57.718 25.36C57.878 24.9 58.028 24.43 58.168 23.95C58.308 23.45 58.378 22.97 58.378 22.51C58.378 21.95 58.258 21.57 58.018 21.37C57.798 21.15 57.518 21.04 57.178 21.04C56.558 21.04 55.928 21.3 55.288 21.82C54.648 22.32 54.028 22.97 53.428 23.77C52.828 24.55 52.268 25.36 51.748 26.2C51.228 27.04 50.768 27.79 50.368 28.45C50.048 28.45 49.748 28.39 49.468 28.27C49.168 28.17 48.938 28.01 48.778 27.79C48.778 27.69 48.888 27.38 49.108 26.86C49.308 26.34 49.548 25.7 49.828 24.94C50.108 24.18 50.358 23.4 50.578 22.6C50.798 21.8 50.908 21.07 50.908 20.41C51.028 20.27 51.218 20.13 51.478 19.99C51.738 19.85 52.008 19.78 52.288 19.78C52.828 19.78 53.098 20.04 53.098 20.56C53.098 20.88 53.008 21.42 52.828 22.18C52.648 22.92 52.418 23.7 52.138 24.52C52.678 23.7 53.278 22.89 53.938 22.09C54.618 21.27 55.338 20.59 56.098 20.05C56.858 19.51 57.618 19.24 58.378 19.24C59.158 19.24 59.718 19.52 60.058 20.08C60.418 20.64 60.598 21.26 60.598 21.94C60.598 22.56 60.498 23.14 60.298 23.68C60.098 24.2 59.888 24.71 59.668 25.21C59.468 25.69 59.368 26.18 59.368 26.68C59.368 27.1 59.448 27.4 59.608 27.58C59.788 27.74 60.008 27.82 60.268 27.82C60.768 27.82 61.268 27.59 61.768 27.13C62.268 26.65 62.748 26.05 63.208 25.33C63.688 24.61 64.108 23.88 64.468 23.14L64.798 23.53C64.378 24.51 63.908 25.38 63.388 26.14C62.868 26.9 62.298 27.5 61.678 27.94C61.058 28.38 60.368 28.6 59.608 28.6ZM69.5026 30.61C68.6026 30.61 67.9826 30.41 67.6426 30.01C67.3026 29.61 67.1326 29.1 67.1326 28.48C67.1326 27.9 67.2526 27.21 67.4926 26.41C67.7326 25.61 67.9826 24.84 68.2426 24.1C68.5826 23.12 68.9926 21.97 69.4726 20.65C69.9526 19.33 70.4626 17.95 71.0026 16.51C71.5626 15.07 72.1226 13.65 72.6826 12.25C73.2626 10.85 73.8226 9.58 74.3626 8.44C72.9826 8.46 71.8226 8.49 70.8826 8.53C69.9626 8.57 69.1326 8.63 68.3926 8.71C67.6526 8.77 66.8426 8.88 65.9626 9.04C66.0226 8.36 66.3726 7.83 67.0126 7.45C67.6526 7.07 68.5126 6.8 69.5926 6.64C70.6726 6.48 71.9026 6.4 73.2826 6.4C74.6626 6.4 75.8926 6.46 76.9726 6.58C78.0726 6.68 79.1026 6.78 80.0626 6.88C81.0226 6.98 81.9826 7.04 82.9426 7.06C82.2626 7.68 81.4826 8.07 80.6026 8.23C79.7226 8.39 78.7926 8.47 77.8126 8.47C77.5926 8.47 77.3626 8.47 77.1226 8.47C76.8826 8.45 76.6426 8.44 76.4026 8.44C76.1626 8.44 75.9226 8.44 75.6826 8.44C75.0426 10.04 74.3026 12.06 73.4626 14.5C72.6426 16.94 71.8126 19.69 70.9726 22.75C70.6926 23.81 70.4326 24.76 70.1926 25.6C69.9726 26.44 69.7926 27.21 69.6526 27.91C69.5326 28.61 69.4726 29.29 69.4726 29.95C69.4726 30.05 69.4726 30.16 69.4726 30.28C69.4726 30.4 69.4826 30.51 69.5026 30.61ZM79.2908 29.32C78.0708 29.32 77.1508 28.98 76.5308 28.3C75.9308 27.64 75.6308 26.82 75.6308 25.84C75.6308 24.94 75.8508 23.99 76.2908 22.99C76.7508 21.99 77.3508 21.05 78.0908 20.17C78.8508 19.29 79.6808 18.58 80.5808 18.04C81.4808 17.48 82.3708 17.2 83.2508 17.2C83.7108 17.2 84.1308 17.32 84.5108 17.56C84.9108 17.8 85.1108 18.29 85.1108 19.03C85.1108 19.79 84.8808 20.51 84.4208 21.19C83.9808 21.85 83.3908 22.44 82.6508 22.96C81.9308 23.48 81.1308 23.91 80.2508 24.25C79.3908 24.57 78.5308 24.77 77.6708 24.85C77.6308 25.05 77.6008 25.24 77.5808 25.42C77.5608 25.6 77.5508 25.77 77.5508 25.93C77.5508 26.23 77.5808 26.53 77.6408 26.83C77.7208 27.13 77.8508 27.41 78.0308 27.67C78.2108 27.91 78.4508 28.1 78.7508 28.24C79.0708 28.38 79.4608 28.45 79.9208 28.45C80.7808 28.45 81.6308 28.21 82.4708 27.73C83.3108 27.23 84.0908 26.58 84.8108 25.78C85.5308 24.98 86.1408 24.1 86.6408 23.14L87.0008 23.41C86.4608 24.61 85.7708 25.65 84.9308 26.53C84.1108 27.41 83.2108 28.09 82.2308 28.57C81.2708 29.07 80.2908 29.32 79.2908 29.32ZM77.8208 24.28C78.3608 24.1 78.9708 23.84 79.6508 23.5C80.3308 23.14 80.9808 22.72 81.6008 22.24C82.2408 21.76 82.7608 21.23 83.1608 20.65C83.5808 20.07 83.7908 19.46 83.7908 18.82C83.7908 18.6 83.7508 18.43 83.6708 18.31C83.5908 18.19 83.4208 18.13 83.1608 18.13C82.6808 18.13 82.1708 18.32 81.6308 18.7C81.0908 19.06 80.5708 19.54 80.0708 20.14C79.5708 20.74 79.1208 21.4 78.7208 22.12C78.3208 22.84 78.0208 23.56 77.8208 24.28ZM89.251 29.68C88.291 29.68 87.491 29.36 86.851 28.72C86.211 28.08 85.891 27.12 85.891 25.84C85.891 24.84 86.081 23.87 86.461 22.93C86.861 21.97 87.381 21.11 88.021 20.35C88.661 19.59 89.371 18.99 90.151 18.55C90.931 18.09 91.701 17.86 92.461 17.86C93.281 17.86 93.841 18.1 94.141 18.58C94.441 19.06 94.591 19.56 94.591 20.08C94.591 20.66 94.451 21.17 94.171 21.61C93.911 22.05 93.551 22.27 93.091 22.27C92.751 22.27 92.461 22.12 92.221 21.82C92.521 21.66 92.781 21.34 93.001 20.86C93.221 20.36 93.331 19.89 93.331 19.45C93.331 19.21 93.281 19.03 93.181 18.91C93.101 18.77 92.931 18.7 92.671 18.7C92.131 18.7 91.571 18.94 90.991 19.42C90.431 19.9 89.901 20.52 89.401 21.28C88.921 22.04 88.521 22.84 88.201 23.68C87.901 24.52 87.751 25.31 87.751 26.05C87.751 26.67 87.901 27.24 88.201 27.76C88.501 28.28 89.081 28.54 89.941 28.54C90.741 28.54 91.541 28.32 92.341 27.88C93.161 27.44 93.921 26.81 94.621 25.99C95.321 25.17 95.881 24.21 96.301 23.11L96.691 23.41C96.231 24.61 95.601 25.69 94.801 26.65C94.001 27.59 93.121 28.33 92.161 28.87C91.201 29.41 90.231 29.68 89.251 29.68Z" fill="black"/>
<g clip-path="url(#clip0_658_3766)">
<rect x="2" y="17" width="54" height="19" rx="2" fill="#4B00E0"/>
<path d="M19.4 30.61C18.2 30.61 17.16 30.36 16.28 29.86C15.4 29.36 14.72 28.7 14.24 27.88C13.78 27.04 13.55 26.13 13.55 25.15C13.55 24.23 13.75 23.33 14.15 22.45C14.55 21.57 15.1 20.77 15.8 20.05C16.52 19.31 17.35 18.71 18.29 18.25C19.23 17.77 20.24 17.48 21.32 17.38C20.54 16.74 19.96 16 19.58 15.16C19.22 14.32 19.04 13.48 19.04 12.64C19.04 11.58 19.3 10.58 19.82 9.64C20.36 8.68 21.1 7.91 22.04 7.33C22.98 6.73 24.04 6.43 25.22 6.43C26.34 6.43 27.19 6.71 27.77 7.27C28.35 7.83 28.64 8.63 28.64 9.67C28.64 10.41 28.51 11.13 28.25 11.83C27.99 12.53 27.67 13.1 27.29 13.54C26.93 13.98 26.58 14.2 26.24 14.2C26.02 14.2 25.81 14.11 25.61 13.93C25.41 13.73 25.25 13.5 25.13 13.24C25.83 12.62 26.42 11.97 26.9 11.29C27.4 10.59 27.65 9.85 27.65 9.07C27.65 8.45 27.47 7.97 27.11 7.63C26.75 7.29 26.22 7.12 25.52 7.12C24.6 7.12 23.82 7.4 23.18 7.96C22.54 8.5 22.05 9.23 21.71 10.15C21.39 11.05 21.23 12.05 21.23 13.15C21.23 13.87 21.34 14.65 21.56 15.49C21.78 16.33 22.25 17.06 22.97 17.68C21.63 17.9 20.46 18.41 19.46 19.21C18.48 20.01 17.71 20.95 17.15 22.03C16.61 23.11 16.34 24.18 16.34 25.24C16.34 25.9 16.46 26.57 16.7 27.25C16.96 27.91 17.37 28.46 17.93 28.9C18.49 29.36 19.24 29.59 20.18 29.59C21.24 29.59 22.29 29.29 23.33 28.69C24.39 28.09 25.36 27.3 26.24 26.32C27.12 25.34 27.82 24.28 28.34 23.14L28.76 23.44C28.06 24.8 27.24 26.02 26.3 27.1C25.36 28.18 24.31 29.03 23.15 29.65C21.99 30.29 20.74 30.61 19.4 30.61ZM29.6609 29.17C29.0409 29.17 28.6109 28.86 28.3709 28.24C28.1309 27.64 28.0109 26.85 28.0109 25.87C28.0109 25.83 28.0209 25.52 28.0409 24.94C28.0609 24.34 28.1109 23.34 28.1909 21.94C28.2309 21.4 28.2909 21.03 28.3709 20.83C28.4509 20.63 28.7109 20.53 29.1509 20.53C29.4909 20.53 29.7009 20.6 29.7809 20.74C29.8809 20.86 29.9309 21.11 29.9309 21.49C29.9309 22.15 29.8809 22.93 29.7809 23.83C29.7009 24.71 29.6609 25.54 29.6609 26.32C29.6609 26.9 29.7109 27.33 29.8109 27.61C29.9109 27.87 30.0909 28 30.3509 28C30.7109 28 31.1109 27.8 31.5509 27.4C31.9909 26.98 32.4409 26.44 32.9009 25.78C33.3609 25.1 33.7909 24.38 34.1909 23.62C34.6109 22.86 34.9809 22.13 35.3009 21.43C35.3409 20.07 35.4809 19.17 35.7209 18.73C35.9809 18.27 36.3009 18.04 36.6809 18.04C37.0609 18.04 37.3309 18.18 37.4909 18.46C37.6709 18.72 37.7609 18.96 37.7609 19.18C37.7609 19.44 37.6709 19.71 37.4909 19.99C37.3309 20.27 37.1609 20.65 36.9809 21.13C36.8009 21.61 36.7109 22.3 36.7109 23.2C36.7109 23.52 36.7409 23.86 36.8009 24.22C36.8609 24.58 36.9909 24.88 37.1909 25.12C37.3909 25.36 37.7009 25.48 38.1209 25.48C38.5409 25.48 38.9409 25.32 39.3209 25C39.7209 24.66 40.1109 24.08 40.4909 23.26L40.8809 23.56C40.4409 24.56 39.9509 25.23 39.4109 25.57C38.8909 25.91 38.3909 26.08 37.9109 26.08C37.2509 26.08 36.7009 25.84 36.2609 25.36C35.8209 24.88 35.5309 24.15 35.3909 23.17C34.9109 24.15 34.3409 25.1 33.6809 26.02C33.0409 26.92 32.3709 27.67 31.6709 28.27C30.9709 28.87 30.3009 29.17 29.6609 29.17ZM43.1677 29.32C41.9477 29.32 41.0277 28.98 40.4077 28.3C39.8077 27.64 39.5077 26.82 39.5077 25.84C39.5077 24.94 39.7277 23.99 40.1677 22.99C40.6277 21.99 41.2277 21.05 41.9677 20.17C42.7277 19.29 43.5577 18.58 44.4577 18.04C45.3577 17.48 46.2477 17.2 47.1277 17.2C47.5877 17.2 48.0077 17.32 48.3877 17.56C48.7877 17.8 48.9877 18.29 48.9877 19.03C48.9877 19.79 48.7577 20.51 48.2977 21.19C47.8577 21.85 47.2677 22.44 46.5277 22.96C45.8077 23.48 45.0077 23.91 44.1277 24.25C43.2677 24.57 42.4077 24.77 41.5477 24.85C41.5077 25.05 41.4777 25.24 41.4577 25.42C41.4377 25.6 41.4277 25.77 41.4277 25.93C41.4277 26.23 41.4577 26.53 41.5177 26.83C41.5977 27.13 41.7277 27.41 41.9077 27.67C42.0877 27.91 42.3277 28.1 42.6277 28.24C42.9477 28.38 43.3377 28.45 43.7977 28.45C44.6577 28.45 45.5077 28.21 46.3477 27.73C47.1877 27.23 47.9677 26.58 48.6877 25.78C49.4077 24.98 50.0177 24.1 50.5177 23.14L50.8777 23.41C50.3377 24.61 49.6477 25.65 48.8077 26.53C47.9877 27.41 47.0877 28.09 46.1077 28.57C45.1477 29.07 44.1677 29.32 43.1677 29.32ZM41.6977 24.28C42.2377 24.1 42.8477 23.84 43.5277 23.5C44.2077 23.14 44.8577 22.72 45.4777 22.24C46.1177 21.76 46.6377 21.23 47.0377 20.65C47.4577 20.07 47.6677 19.46 47.6677 18.82C47.6677 18.6 47.6277 18.43 47.5477 18.31C47.4677 18.19 47.2977 18.13 47.0377 18.13C46.5577 18.13 46.0477 18.32 45.5077 18.7C44.9677 19.06 44.4477 19.54 43.9477 20.14C43.4477 20.74 42.9977 21.4 42.5977 22.12C42.1977 22.84 41.8977 23.56 41.6977 24.28ZM59.608 28.6C58.908 28.6 58.378 28.42 58.018 28.06C57.678 27.7 57.508 27.24 57.508 26.68C57.508 26.26 57.578 25.82 57.718 25.36C57.878 24.9 58.028 24.43 58.168 23.95C58.308 23.45 58.378 22.97 58.378 22.51C58.378 21.95 58.258 21.57 58.018 21.37C57.798 21.15 57.518 21.04 57.178 21.04C56.558 21.04 55.928 21.3 55.288 21.82C54.648 22.32 54.028 22.97 53.428 23.77C52.828 24.55 52.268 25.36 51.748 26.2C51.228 27.04 50.768 27.79 50.368 28.45C50.048 28.45 49.748 28.39 49.468 28.27C49.168 28.17 48.938 28.01 48.778 27.79C48.778 27.69 48.888 27.38 49.108 26.86C49.308 26.34 49.548 25.7 49.828 24.94C50.108 24.18 50.358 23.4 50.578 22.6C50.798 21.8 50.908 21.07 50.908 20.41C51.028 20.27 51.218 20.13 51.478 19.99C51.738 19.85 52.008 19.78 52.288 19.78C52.828 19.78 53.098 20.04 53.098 20.56C53.098 20.88 53.008 21.42 52.828 22.18C52.648 22.92 52.418 23.7 52.138 24.52C52.678 23.7 53.278 22.89 53.938 22.09C54.618 21.27 55.338 20.59 56.098 20.05C56.858 19.51 57.618 19.24 58.378 19.24C59.158 19.24 59.718 19.52 60.058 20.08C60.418 20.64 60.598 21.26 60.598 21.94C60.598 22.56 60.498 23.14 60.298 23.68C60.098 24.2 59.888 24.71 59.668 25.21C59.468 25.69 59.368 26.18 59.368 26.68C59.368 27.1 59.448 27.4 59.608 27.58C59.788 27.74 60.008 27.82 60.268 27.82C60.768 27.82 61.268 27.59 61.768 27.13C62.268 26.65 62.748 26.05 63.208 25.33C63.688 24.61 64.108 23.88 64.468 23.14L64.798 23.53C64.378 24.51 63.908 25.38 63.388 26.14C62.868 26.9 62.298 27.5 61.678 27.94C61.058 28.38 60.368 28.6 59.608 28.6ZM69.5026 30.61C68.6026 30.61 67.9826 30.41 67.6426 30.01C67.3026 29.61 67.1326 29.1 67.1326 28.48C67.1326 27.9 67.2526 27.21 67.4926 26.41C67.7326 25.61 67.9826 24.84 68.2426 24.1C68.5826 23.12 68.9926 21.97 69.4726 20.65C69.9526 19.33 70.4626 17.95 71.0026 16.51C71.5626 15.07 72.1226 13.65 72.6826 12.25C73.2626 10.85 73.8226 9.58 74.3626 8.44C72.9826 8.46 71.8226 8.49 70.8826 8.53C69.9626 8.57 69.1326 8.63 68.3926 8.71C67.6526 8.77 66.8426 8.88 65.9626 9.04C66.0226 8.36 66.3726 7.83 67.0126 7.45C67.6526 7.07 68.5126 6.8 69.5926 6.64C70.6726 6.48 71.9026 6.4 73.2826 6.4C74.6626 6.4 75.8926 6.46 76.9726 6.58C78.0726 6.68 79.1026 6.78 80.0626 6.88C81.0226 6.98 81.9826 7.04 82.9426 7.06C82.2626 7.68 81.4826 8.07 80.6026 8.23C79.7226 8.39 78.7926 8.47 77.8126 8.47C77.5926 8.47 77.3626 8.47 77.1226 8.47C76.8826 8.45 76.6426 8.44 76.4026 8.44C76.1626 8.44 75.9226 8.44 75.6826 8.44C75.0426 10.04 74.3026 12.06 73.4626 14.5C72.6426 16.94 71.8126 19.69 70.9726 22.75C70.6926 23.81 70.4326 24.76 70.1926 25.6C69.9726 26.44 69.7926 27.21 69.6526 27.91C69.5326 28.61 69.4726 29.29 69.4726 29.95C69.4726 30.05 69.4726 30.16 69.4726 30.28C69.4726 30.4 69.4826 30.51 69.5026 30.61ZM79.2908 29.32C78.0708 29.32 77.1508 28.98 76.5308 28.3C75.9308 27.64 75.6308 26.82 75.6308 25.84C75.6308 24.94 75.8508 23.99 76.2908 22.99C76.7508 21.99 77.3508 21.05 78.0908 20.17C78.8508 19.29 79.6808 18.58 80.5808 18.04C81.4808 17.48 82.3708 17.2 83.2508 17.2C83.7108 17.2 84.1308 17.32 84.5108 17.56C84.9108 17.8 85.1108 18.29 85.1108 19.03C85.1108 19.79 84.8808 20.51 84.4208 21.19C83.9808 21.85 83.3908 22.44 82.6508 22.96C81.9308 23.48 81.1308 23.91 80.2508 24.25C79.3908 24.57 78.5308 24.77 77.6708 24.85C77.6308 25.05 77.6008 25.24 77.5808 25.42C77.5608 25.6 77.5508 25.77 77.5508 25.93C77.5508 26.23 77.5808 26.53 77.6408 26.83C77.7208 27.13 77.8508 27.41 78.0308 27.67C78.2108 27.91 78.4508 28.1 78.7508 28.24C79.0708 28.38 79.4608 28.45 79.9208 28.45C80.7808 28.45 81.6308 28.21 82.4708 27.73C83.3108 27.23 84.0908 26.58 84.8108 25.78C85.5308 24.98 86.1408 24.1 86.6408 23.14L87.0008 23.41C86.4608 24.61 85.7708 25.65 84.9308 26.53C84.1108 27.41 83.2108 28.09 82.2308 28.57C81.2708 29.07 80.2908 29.32 79.2908 29.32ZM77.8208 24.28C78.3608 24.1 78.9708 23.84 79.6508 23.5C80.3308 23.14 80.9808 22.72 81.6008 22.24C82.2408 21.76 82.7608 21.23 83.1608 20.65C83.5808 20.07 83.7908 19.46 83.7908 18.82C83.7908 18.6 83.7508 18.43 83.6708 18.31C83.5908 18.19 83.4208 18.13 83.1608 18.13C82.6808 18.13 82.1708 18.32 81.6308 18.7C81.0908 19.06 80.5708 19.54 80.0708 20.14C79.5708 20.74 79.1208 21.4 78.7208 22.12C78.3208 22.84 78.0208 23.56 77.8208 24.28ZM89.251 29.68C88.291 29.68 87.491 29.36 86.851 28.72C86.211 28.08 85.891 27.12 85.891 25.84C85.891 24.84 86.081 23.87 86.461 22.93C86.861 21.97 87.381 21.11 88.021 20.35C88.661 19.59 89.371 18.99 90.151 18.55C90.931 18.09 91.701 17.86 92.461 17.86C93.281 17.86 93.841 18.1 94.141 18.58C94.441 19.06 94.591 19.56 94.591 20.08C94.591 20.66 94.451 21.17 94.171 21.61C93.911 22.05 93.551 22.27 93.091 22.27C92.751 22.27 92.461 22.12 92.221 21.82C92.521 21.66 92.781 21.34 93.001 20.86C93.221 20.36 93.331 19.89 93.331 19.45C93.331 19.21 93.281 19.03 93.181 18.91C93.101 18.77 92.931 18.7 92.671 18.7C92.131 18.7 91.571 18.94 90.991 19.42C90.431 19.9 89.901 20.52 89.401 21.28C88.921 22.04 88.521 22.84 88.201 23.68C87.901 24.52 87.751 25.31 87.751 26.05C87.751 26.67 87.901 27.24 88.201 27.76C88.501 28.28 89.081 28.54 89.941 28.54C90.741 28.54 91.541 28.32 92.341 27.88C93.161 27.44 93.921 26.81 94.621 25.99C95.321 25.17 95.881 24.21 96.301 23.11L96.691 23.41C96.231 24.61 95.601 25.69 94.801 26.65C94.001 27.59 93.121 28.33 92.161 28.87C91.201 29.41 90.231 29.68 89.251 29.68Z" fill="white"/>
</g>
<g clip-path="url(#clip1_658_3766)">
<rect x="49" y="4" width="56" height="20" rx="2" fill="#EF0037"/>
<path d="M19.4 30.61C18.2 30.61 17.16 30.36 16.28 29.86C15.4 29.36 14.72 28.7 14.24 27.88C13.78 27.04 13.55 26.13 13.55 25.15C13.55 24.23 13.75 23.33 14.15 22.45C14.55 21.57 15.1 20.77 15.8 20.05C16.52 19.31 17.35 18.71 18.29 18.25C19.23 17.77 20.24 17.48 21.32 17.38C20.54 16.74 19.96 16 19.58 15.16C19.22 14.32 19.04 13.48 19.04 12.64C19.04 11.58 19.3 10.58 19.82 9.64C20.36 8.68 21.1 7.91 22.04 7.33C22.98 6.73 24.04 6.43 25.22 6.43C26.34 6.43 27.19 6.71 27.77 7.27C28.35 7.83 28.64 8.63 28.64 9.67C28.64 10.41 28.51 11.13 28.25 11.83C27.99 12.53 27.67 13.1 27.29 13.54C26.93 13.98 26.58 14.2 26.24 14.2C26.02 14.2 25.81 14.11 25.61 13.93C25.41 13.73 25.25 13.5 25.13 13.24C25.83 12.62 26.42 11.97 26.9 11.29C27.4 10.59 27.65 9.85 27.65 9.07C27.65 8.45 27.47 7.97 27.11 7.63C26.75 7.29 26.22 7.12 25.52 7.12C24.6 7.12 23.82 7.4 23.18 7.96C22.54 8.5 22.05 9.23 21.71 10.15C21.39 11.05 21.23 12.05 21.23 13.15C21.23 13.87 21.34 14.65 21.56 15.49C21.78 16.33 22.25 17.06 22.97 17.68C21.63 17.9 20.46 18.41 19.46 19.21C18.48 20.01 17.71 20.95 17.15 22.03C16.61 23.11 16.34 24.18 16.34 25.24C16.34 25.9 16.46 26.57 16.7 27.25C16.96 27.91 17.37 28.46 17.93 28.9C18.49 29.36 19.24 29.59 20.18 29.59C21.24 29.59 22.29 29.29 23.33 28.69C24.39 28.09 25.36 27.3 26.24 26.32C27.12 25.34 27.82 24.28 28.34 23.14L28.76 23.44C28.06 24.8 27.24 26.02 26.3 27.1C25.36 28.18 24.31 29.03 23.15 29.65C21.99 30.29 20.74 30.61 19.4 30.61ZM29.6609 29.17C29.0409 29.17 28.6109 28.86 28.3709 28.24C28.1309 27.64 28.0109 26.85 28.0109 25.87C28.0109 25.83 28.0209 25.52 28.0409 24.94C28.0609 24.34 28.1109 23.34 28.1909 21.94C28.2309 21.4 28.2909 21.03 28.3709 20.83C28.4509 20.63 28.7109 20.53 29.1509 20.53C29.4909 20.53 29.7009 20.6 29.7809 20.74C29.8809 20.86 29.9309 21.11 29.9309 21.49C29.9309 22.15 29.8809 22.93 29.7809 23.83C29.7009 24.71 29.6609 25.54 29.6609 26.32C29.6609 26.9 29.7109 27.33 29.8109 27.61C29.9109 27.87 30.0909 28 30.3509 28C30.7109 28 31.1109 27.8 31.5509 27.4C31.9909 26.98 32.4409 26.44 32.9009 25.78C33.3609 25.1 33.7909 24.38 34.1909 23.62C34.6109 22.86 34.9809 22.13 35.3009 21.43C35.3409 20.07 35.4809 19.17 35.7209 18.73C35.9809 18.27 36.3009 18.04 36.6809 18.04C37.0609 18.04 37.3309 18.18 37.4909 18.46C37.6709 18.72 37.7609 18.96 37.7609 19.18C37.7609 19.44 37.6709 19.71 37.4909 19.99C37.3309 20.27 37.1609 20.65 36.9809 21.13C36.8009 21.61 36.7109 22.3 36.7109 23.2C36.7109 23.52 36.7409 23.86 36.8009 24.22C36.8609 24.58 36.9909 24.88 37.1909 25.12C37.3909 25.36 37.7009 25.48 38.1209 25.48C38.5409 25.48 38.9409 25.32 39.3209 25C39.7209 24.66 40.1109 24.08 40.4909 23.26L40.8809 23.56C40.4409 24.56 39.9509 25.23 39.4109 25.57C38.8909 25.91 38.3909 26.08 37.9109 26.08C37.2509 26.08 36.7009 25.84 36.2609 25.36C35.8209 24.88 35.5309 24.15 35.3909 23.17C34.9109 24.15 34.3409 25.1 33.6809 26.02C33.0409 26.92 32.3709 27.67 31.6709 28.27C30.9709 28.87 30.3009 29.17 29.6609 29.17ZM43.1677 29.32C41.9477 29.32 41.0277 28.98 40.4077 28.3C39.8077 27.64 39.5077 26.82 39.5077 25.84C39.5077 24.94 39.7277 23.99 40.1677 22.99C40.6277 21.99 41.2277 21.05 41.9677 20.17C42.7277 19.29 43.5577 18.58 44.4577 18.04C45.3577 17.48 46.2477 17.2 47.1277 17.2C47.5877 17.2 48.0077 17.32 48.3877 17.56C48.7877 17.8 48.9877 18.29 48.9877 19.03C48.9877 19.79 48.7577 20.51 48.2977 21.19C47.8577 21.85 47.2677 22.44 46.5277 22.96C45.8077 23.48 45.0077 23.91 44.1277 24.25C43.2677 24.57 42.4077 24.77 41.5477 24.85C41.5077 25.05 41.4777 25.24 41.4577 25.42C41.4377 25.6 41.4277 25.77 41.4277 25.93C41.4277 26.23 41.4577 26.53 41.5177 26.83C41.5977 27.13 41.7277 27.41 41.9077 27.67C42.0877 27.91 42.3277 28.1 42.6277 28.24C42.9477 28.38 43.3377 28.45 43.7977 28.45C44.6577 28.45 45.5077 28.21 46.3477 27.73C47.1877 27.23 47.9677 26.58 48.6877 25.78C49.4077 24.98 50.0177 24.1 50.5177 23.14L50.8777 23.41C50.3377 24.61 49.6477 25.65 48.8077 26.53C47.9877 27.41 47.0877 28.09 46.1077 28.57C45.1477 29.07 44.1677 29.32 43.1677 29.32ZM41.6977 24.28C42.2377 24.1 42.8477 23.84 43.5277 23.5C44.2077 23.14 44.8577 22.72 45.4777 22.24C46.1177 21.76 46.6377 21.23 47.0377 20.65C47.4577 20.07 47.6677 19.46 47.6677 18.82C47.6677 18.6 47.6277 18.43 47.5477 18.31C47.4677 18.19 47.2977 18.13 47.0377 18.13C46.5577 18.13 46.0477 18.32 45.5077 18.7C44.9677 19.06 44.4477 19.54 43.9477 20.14C43.4477 20.74 42.9977 21.4 42.5977 22.12C42.1977 22.84 41.8977 23.56 41.6977 24.28ZM59.608 28.6C58.908 28.6 58.378 28.42 58.018 28.06C57.678 27.7 57.508 27.24 57.508 26.68C57.508 26.26 57.578 25.82 57.718 25.36C57.878 24.9 58.028 24.43 58.168 23.95C58.308 23.45 58.378 22.97 58.378 22.51C58.378 21.95 58.258 21.57 58.018 21.37C57.798 21.15 57.518 21.04 57.178 21.04C56.558 21.04 55.928 21.3 55.288 21.82C54.648 22.32 54.028 22.97 53.428 23.77C52.828 24.55 52.268 25.36 51.748 26.2C51.228 27.04 50.768 27.79 50.368 28.45C50.048 28.45 49.748 28.39 49.468 28.27C49.168 28.17 48.938 28.01 48.778 27.79C48.778 27.69 48.888 27.38 49.108 26.86C49.308 26.34 49.548 25.7 49.828 24.94C50.108 24.18 50.358 23.4 50.578 22.6C50.798 21.8 50.908 21.07 50.908 20.41C51.028 20.27 51.218 20.13 51.478 19.99C51.738 19.85 52.008 19.78 52.288 19.78C52.828 19.78 53.098 20.04 53.098 20.56C53.098 20.88 53.008 21.42 52.828 22.18C52.648 22.92 52.418 23.7 52.138 24.52C52.678 23.7 53.278 22.89 53.938 22.09C54.618 21.27 55.338 20.59 56.098 20.05C56.858 19.51 57.618 19.24 58.378 19.24C59.158 19.24 59.718 19.52 60.058 20.08C60.418 20.64 60.598 21.26 60.598 21.94C60.598 22.56 60.498 23.14 60.298 23.68C60.098 24.2 59.888 24.71 59.668 25.21C59.468 25.69 59.368 26.18 59.368 26.68C59.368 27.1 59.448 27.4 59.608 27.58C59.788 27.74 60.008 27.82 60.268 27.82C60.768 27.82 61.268 27.59 61.768 27.13C62.268 26.65 62.748 26.05 63.208 25.33C63.688 24.61 64.108 23.88 64.468 23.14L64.798 23.53C64.378 24.51 63.908 25.38 63.388 26.14C62.868 26.9 62.298 27.5 61.678 27.94C61.058 28.38 60.368 28.6 59.608 28.6ZM69.5026 30.61C68.6026 30.61 67.9826 30.41 67.6426 30.01C67.3026 29.61 67.1326 29.1 67.1326 28.48C67.1326 27.9 67.2526 27.21 67.4926 26.41C67.7326 25.61 67.9826 24.84 68.2426 24.1C68.5826 23.12 68.9926 21.97 69.4726 20.65C69.9526 19.33 70.4626 17.95 71.0026 16.51C71.5626 15.07 72.1226 13.65 72.6826 12.25C73.2626 10.85 73.8226 9.58 74.3626 8.44C72.9826 8.46 71.8226 8.49 70.8826 8.53C69.9626 8.57 69.1326 8.63 68.3926 8.71C67.6526 8.77 66.8426 8.88 65.9626 9.04C66.0226 8.36 66.3726 7.83 67.0126 7.45C67.6526 7.07 68.5126 6.8 69.5926 6.64C70.6726 6.48 71.9026 6.4 73.2826 6.4C74.6626 6.4 75.8926 6.46 76.9726 6.58C78.0726 6.68 79.1026 6.78 80.0626 6.88C81.0226 6.98 81.9826 7.04 82.9426 7.06C82.2626 7.68 81.4826 8.07 80.6026 8.23C79.7226 8.39 78.7926 8.47 77.8126 8.47C77.5926 8.47 77.3626 8.47 77.1226 8.47C76.8826 8.45 76.6426 8.44 76.4026 8.44C76.1626 8.44 75.9226 8.44 75.6826 8.44C75.0426 10.04 74.3026 12.06 73.4626 14.5C72.6426 16.94 71.8126 19.69 70.9726 22.75C70.6926 23.81 70.4326 24.76 70.1926 25.6C69.9726 26.44 69.7926 27.21 69.6526 27.91C69.5326 28.61 69.4726 29.29 69.4726 29.95C69.4726 30.05 69.4726 30.16 69.4726 30.28C69.4726 30.4 69.4826 30.51 69.5026 30.61ZM79.2908 29.32C78.0708 29.32 77.1508 28.98 76.5308 28.3C75.9308 27.64 75.6308 26.82 75.6308 25.84C75.6308 24.94 75.8508 23.99 76.2908 22.99C76.7508 21.99 77.3508 21.05 78.0908 20.17C78.8508 19.29 79.6808 18.58 80.5808 18.04C81.4808 17.48 82.3708 17.2 83.2508 17.2C83.7108 17.2 84.1308 17.32 84.5108 17.56C84.9108 17.8 85.1108 18.29 85.1108 19.03C85.1108 19.79 84.8808 20.51 84.4208 21.19C83.9808 21.85 83.3908 22.44 82.6508 22.96C81.9308 23.48 81.1308 23.91 80.2508 24.25C79.3908 24.57 78.5308 24.77 77.6708 24.85C77.6308 25.05 77.6008 25.24 77.5808 25.42C77.5608 25.6 77.5508 25.77 77.5508 25.93C77.5508 26.23 77.5808 26.53 77.6408 26.83C77.7208 27.13 77.8508 27.41 78.0308 27.67C78.2108 27.91 78.4508 28.1 78.7508 28.24C79.0708 28.38 79.4608 28.45 79.9208 28.45C80.7808 28.45 81.6308 28.21 82.4708 27.73C83.3108 27.23 84.0908 26.58 84.8108 25.78C85.5308 24.98 86.1408 24.1 86.6408 23.14L87.0008 23.41C86.4608 24.61 85.7708 25.65 84.9308 26.53C84.1108 27.41 83.2108 28.09 82.2308 28.57C81.2708 29.07 80.2908 29.32 79.2908 29.32ZM77.8208 24.28C78.3608 24.1 78.9708 23.84 79.6508 23.5C80.3308 23.14 80.9808 22.72 81.6008 22.24C82.2408 21.76 82.7608 21.23 83.1608 20.65C83.5808 20.07 83.7908 19.46 83.7908 18.82C83.7908 18.6 83.7508 18.43 83.6708 18.31C83.5908 18.19 83.4208 18.13 83.1608 18.13C82.6808 18.13 82.1708 18.32 81.6308 18.7C81.0908 19.06 80.5708 19.54 80.0708 20.14C79.5708 20.74 79.1208 21.4 78.7208 22.12C78.3208 22.84 78.0208 23.56 77.8208 24.28ZM89.251 29.68C88.291 29.68 87.491 29.36 86.851 28.72C86.211 28.08 85.891 27.12 85.891 25.84C85.891 24.84 86.081 23.87 86.461 22.93C86.861 21.97 87.381 21.11 88.021 20.35C88.661 19.59 89.371 18.99 90.151 18.55C90.931 18.09 91.701 17.86 92.461 17.86C93.281 17.86 93.841 18.1 94.141 18.58C94.441 19.06 94.591 19.56 94.591 20.08C94.591 20.66 94.451 21.17 94.171 21.61C93.911 22.05 93.551 22.27 93.091 22.27C92.751 22.27 92.461 22.12 92.221 21.82C92.521 21.66 92.781 21.34 93.001 20.86C93.221 20.36 93.331 19.89 93.331 19.45C93.331 19.21 93.281 19.03 93.181 18.91C93.101 18.77 92.931 18.7 92.671 18.7C92.131 18.7 91.571 18.94 90.991 19.42C90.431 19.9 89.901 20.52 89.401 21.28C88.921 22.04 88.521 22.84 88.201 23.68C87.901 24.52 87.751 25.31 87.751 26.05C87.751 26.67 87.901 27.24 88.201 27.76C88.501 28.28 89.081 28.54 89.941 28.54C90.741 28.54 91.541 28.32 92.341 27.88C93.161 27.44 93.921 26.81 94.621 25.99C95.321 25.17 95.881 24.21 96.301 23.11L96.691 23.41C96.231 24.61 95.601 25.69 94.801 26.65C94.001 27.59 93.121 28.33 92.161 28.87C91.201 29.41 90.231 29.68 89.251 29.68Z" fill="white"/>
</g>
<defs>
<clipPath id="clip0_658_3766">
<rect x="2" y="17" width="54" height="19" rx="2" fill="white"/>
</clipPath>
<clipPath id="clip1_658_3766">
<rect x="49" y="4" width="56" height="20" rx="2" fill="white"/>
</clipPath>
</defs>
</svg>
